<svg xmlns="http://www.w3.org/2000/svg" xmlns:xlink="http://www.w3.org/1999/xlink" width="500" zoomAndPan="magnify" viewBox="0 0 375 374.999991" height="500" preserveAspectRatio="xMidYMid meet" version="1.0"><defs><clipPath id="682a252a5b"><path d="M 34.316406 34.316406 L 324 34.316406 L 324 324 L 34.316406 324 Z M 34.316406 34.316406 " clip-rule="nonzero"/></clipPath><clipPath id="f839b12054"><path d="M 51 51 L 340.316406 51 L 340.316406 340.316406 L 51 340.316406 Z M 51 51 " clip-rule="nonzero"/></clipPath><clipPath id="4e9a99e3da"><path d="M 286 128 L 374.703125 128 L 374.703125 176.25 L 286 176.25 Z M 286 128 " clip-rule="nonzero"/></clipPath><clipPath id="194865a22b"><path d="M 200.703125 12 L 249 12 L 249 104 L 200.703125 104 Z M 200.703125 12 " clip-rule="nonzero"/></clipPath></defs><g clip-path="url(#682a252a5b)"><path fill="#00ffea" d="M 323.289062 178.75 C 323.289062 181.113281 323.230469 183.476562 323.117188 185.839844 C 323 188.199219 322.828125 190.558594 322.59375 192.910156 C 322.363281 195.261719 322.074219 197.609375 321.726562 199.949219 C 321.378906 202.289062 320.976562 204.617188 320.515625 206.933594 C 320.054688 209.253906 319.535156 211.558594 318.960938 213.855469 C 318.386719 216.148438 317.753906 218.425781 317.070312 220.6875 C 316.382812 222.949219 315.640625 225.195312 314.84375 227.421875 C 314.046875 229.648438 313.199219 231.851562 312.292969 234.039062 C 311.386719 236.222656 310.429688 238.382812 309.417969 240.519531 C 308.40625 242.65625 307.34375 244.769531 306.230469 246.855469 C 305.117188 248.9375 303.953125 250.996094 302.734375 253.023438 C 301.519531 255.050781 300.253906 257.050781 298.941406 259.015625 C 297.628906 260.980469 296.265625 262.914062 294.859375 264.8125 C 293.449219 266.710938 291.996094 268.574219 290.496094 270.402344 C 288.996094 272.230469 287.453125 274.019531 285.863281 275.773438 C 284.277344 277.523438 282.648438 279.234375 280.976562 280.90625 C 279.304688 282.578125 277.589844 284.210938 275.839844 285.796875 C 274.085938 287.386719 272.296875 288.929688 270.46875 290.429688 C 268.640625 291.929688 266.777344 293.382812 264.878906 294.792969 C 262.980469 296.199219 261.046875 297.5625 259.082031 298.875 C 257.117188 300.1875 255.117188 301.453125 253.089844 302.667969 C 251.0625 303.882812 249.007812 305.050781 246.921875 306.164062 C 244.835938 307.277344 242.722656 308.339844 240.585938 309.351562 C 238.449219 310.363281 236.289062 311.320312 234.105469 312.226562 C 231.917969 313.128906 229.714844 313.980469 227.488281 314.777344 C 225.261719 315.574219 223.019531 316.316406 220.753906 317.003906 C 218.492188 317.6875 216.214844 318.320312 213.921875 318.894531 C 211.628906 319.46875 209.320312 319.984375 207 320.445312 C 204.683594 320.910156 202.355469 321.3125 200.015625 321.660156 C 197.675781 322.007812 195.332031 322.296875 192.976562 322.527344 C 190.625 322.757812 188.265625 322.933594 185.90625 323.050781 C 183.542969 323.164062 181.179688 323.222656 178.816406 323.222656 C 176.453125 323.222656 174.089844 323.164062 171.726562 323.050781 C 169.367188 322.933594 167.007812 322.757812 164.65625 322.527344 C 162.300781 322.296875 159.957031 322.007812 157.617188 321.660156 C 155.277344 321.3125 152.949219 320.910156 150.632812 320.445312 C 148.3125 319.984375 146.007812 319.46875 143.710938 318.894531 C 141.417969 318.320312 139.140625 317.6875 136.878906 317.003906 C 134.617188 316.316406 132.371094 315.574219 130.144531 314.777344 C 127.917969 313.980469 125.714844 313.128906 123.527344 312.226562 C 121.34375 311.320312 119.183594 310.363281 117.046875 309.351562 C 114.910156 308.339844 112.796875 307.277344 110.710938 306.164062 C 108.625 305.050781 106.570312 303.882812 104.542969 302.667969 C 102.515625 301.453125 100.515625 300.1875 98.550781 298.875 C 96.585938 297.5625 94.652344 296.199219 92.753906 294.792969 C 90.855469 293.382812 88.992188 291.929688 87.164062 290.429688 C 85.335938 288.929688 83.546875 287.386719 81.792969 285.796875 C 80.042969 284.210938 78.332031 282.578125 76.660156 280.90625 C 74.988281 279.234375 73.355469 277.523438 71.769531 275.773438 C 70.179688 274.019531 68.636719 272.230469 67.136719 270.402344 C 65.636719 268.574219 64.183594 266.710938 62.773438 264.8125 C 61.367188 262.914062 60.003906 260.980469 58.691406 259.015625 C 57.378906 257.050781 56.113281 255.050781 54.898438 253.023438 C 53.683594 250.996094 52.515625 248.9375 51.402344 246.855469 C 50.289062 244.769531 49.226562 242.65625 48.214844 240.519531 C 47.203125 238.382812 46.246094 236.222656 45.339844 234.039062 C 44.433594 231.851562 43.585938 229.648438 42.789062 227.421875 C 41.992188 225.195312 41.25 222.949219 40.5625 220.6875 C 39.878906 218.425781 39.246094 216.148438 38.671875 213.855469 C 38.097656 211.558594 37.582031 209.253906 37.117188 206.933594 C 36.65625 204.617188 36.253906 202.289062 35.90625 199.949219 C 35.558594 197.609375 35.269531 195.261719 35.039062 192.910156 C 34.808594 190.558594 34.632812 188.199219 34.515625 185.839844 C 34.402344 183.476562 34.34375 181.113281 34.34375 178.75 C 34.34375 176.386719 34.402344 174.023438 34.515625 171.660156 C 34.632812 169.300781 34.808594 166.941406 35.039062 164.589844 C 35.269531 162.234375 35.558594 159.890625 35.90625 157.550781 C 36.253906 155.210938 36.65625 152.882812 37.117188 150.5625 C 37.582031 148.246094 38.097656 145.9375 38.671875 143.644531 C 39.246094 141.351562 39.878906 139.074219 40.5625 136.8125 C 41.25 134.546875 41.992188 132.304688 42.789062 130.078125 C 43.585938 127.851562 44.433594 125.644531 45.339844 123.460938 C 46.246094 121.277344 47.203125 119.117188 48.214844 116.980469 C 49.226562 114.84375 50.289062 112.730469 51.402344 110.644531 C 52.515625 108.558594 53.683594 106.503906 54.898438 104.476562 C 56.113281 102.449219 57.378906 100.449219 58.691406 98.484375 C 60.003906 96.519531 61.367188 94.585938 62.773438 92.6875 C 64.183594 90.789062 65.636719 88.925781 67.136719 87.097656 C 68.636719 85.269531 70.179688 83.480469 71.769531 81.726562 C 73.355469 79.976562 74.988281 78.261719 76.660156 76.589844 C 78.332031 74.917969 80.042969 73.289062 81.792969 71.703125 C 83.546875 70.113281 85.335938 68.570312 87.164062 67.070312 C 88.992188 65.570312 90.855469 64.117188 92.753906 62.707031 C 94.652344 61.300781 96.585938 59.9375 98.550781 58.625 C 100.515625 57.3125 102.515625 56.046875 104.542969 54.832031 C 106.570312 53.613281 108.625 52.449219 110.710938 51.335938 C 112.796875 50.222656 114.910156 49.15625 117.046875 48.148438 C 119.183594 47.136719 121.34375 46.179688 123.527344 45.273438 C 125.714844 44.367188 127.917969 43.519531 130.144531 42.722656 C 132.371094 41.925781 134.617188 41.183594 136.878906 40.496094 C 139.140625 39.8125 141.417969 39.179688 143.710938 38.605469 C 146.007812 38.03125 148.3125 37.511719 150.632812 37.050781 C 152.949219 36.589844 155.277344 36.1875 157.617188 35.839844 C 159.957031 35.492188 162.300781 35.203125 164.65625 34.972656 C 167.007812 34.738281 169.367188 34.566406 171.726562 34.449219 C 174.089844 34.335938 176.453125 34.277344 178.816406 34.277344 C 181.179688 34.277344 183.542969 34.335938 185.90625 34.449219 C 188.265625 34.566406 190.625 34.738281 192.976562 34.972656 C 195.332031 35.203125 197.675781 35.492188 200.015625 35.839844 C 202.355469 36.1875 204.683594 36.589844 207 37.050781 C 209.320312 37.511719 211.628906 38.03125 213.921875 38.605469 C 216.214844 39.179688 218.492188 39.8125 220.753906 40.496094 C 223.019531 41.183594 225.261719 41.925781 227.488281 42.722656 C 229.714844 43.519531 231.917969 44.367188 234.105469 45.273438 C 236.289062 46.179688 238.449219 47.136719 240.585938 48.148438 C 242.722656 49.15625 244.835938 50.222656 246.921875 51.335938 C 249.007812 52.449219 251.0625 53.613281 253.089844 54.832031 C 255.117188 56.046875 257.117188 57.3125 259.082031 58.625 C 261.046875 59.9375 262.980469 61.300781 264.878906 62.707031 C 266.777344 64.117188 268.640625 65.570312 270.46875 67.070312 C 272.296875 68.570312 274.085938 70.113281 275.839844 71.703125 C 277.589844 73.289062 279.304688 74.917969 280.976562 76.589844 C 282.648438 78.261719 284.277344 79.976562 285.863281 81.726562 C 287.453125 83.480469 288.996094 85.269531 290.496094 87.097656 C 291.996094 88.925781 293.449219 90.789062 294.859375 92.6875 C 296.265625 94.585938 297.628906 96.519531 298.941406 98.484375 C 300.253906 100.449219 301.519531 102.449219 302.734375 104.476562 C 303.953125 106.503906 305.117188 108.558594 306.230469 110.644531 C 307.34375 112.730469 308.40625 114.84375 309.417969 116.980469 C 310.429688 119.117188 311.386719 121.277344 312.292969 123.460938 C 313.199219 125.644531 314.046875 127.851562 314.84375 130.078125 C 315.640625 132.304688 316.382812 134.546875 317.070312 136.8125 C 317.753906 139.074219 318.386719 141.351562 318.960938 143.644531 C 319.535156 145.9375 320.054688 148.246094 320.515625 150.5625 C 320.976562 152.882812 321.378906 155.210938 321.726562 157.550781 C 322.074219 159.890625 322.363281 162.234375 322.59375 164.589844 C 322.828125 166.941406 323 169.300781 323.117188 171.660156 C 323.230469 174.023438 323.289062 176.386719 323.289062 178.75 Z M 323.289062 178.75 " fill-opacity="1" fill-rule="nonzero"/></g><g clip-path="url(#f839b12054)"><path fill="#ff0000" d="M 340.375 195.835938 C 340.375 198.199219 340.316406 200.5625 340.203125 202.925781 C 340.085938 205.285156 339.910156 207.644531 339.679688 209.996094 C 339.449219 212.347656 339.160156 214.695312 338.8125 217.035156 C 338.464844 219.371094 338.0625 221.703125 337.597656 224.019531 C 337.136719 226.339844 336.621094 228.644531 336.046875 230.9375 C 335.472656 233.234375 334.839844 235.511719 334.15625 237.773438 C 333.46875 240.035156 332.726562 242.28125 331.929688 244.507812 C 331.132812 246.734375 330.28125 248.9375 329.378906 251.121094 C 328.472656 253.308594 327.515625 255.46875 326.503906 257.605469 C 325.492188 259.742188 324.429688 261.855469 323.316406 263.9375 C 322.203125 266.023438 321.035156 268.082031 319.820312 270.109375 C 318.605469 272.136719 317.339844 274.132812 316.027344 276.101562 C 314.714844 278.066406 313.351562 280 311.945312 281.898438 C 310.535156 283.796875 309.082031 285.660156 307.582031 287.488281 C 306.082031 289.316406 304.539062 291.105469 302.949219 292.859375 C 301.363281 294.609375 299.730469 296.320312 298.058594 297.992188 C 296.386719 299.664062 294.675781 301.296875 292.925781 302.882812 C 291.171875 304.472656 289.382812 306.015625 287.554688 307.515625 C 285.726562 309.015625 283.863281 310.46875 281.964844 311.878906 C 280.066406 313.285156 278.132812 314.648438 276.167969 315.960938 C 274.203125 317.273438 272.203125 318.539062 270.175781 319.753906 C 268.148438 320.96875 266.089844 322.136719 264.007812 323.25 C 261.921875 324.363281 259.808594 325.425781 257.671875 326.4375 C 255.535156 327.449219 253.375 328.40625 251.191406 329.3125 C 249.003906 330.214844 246.800781 331.066406 244.574219 331.863281 C 242.347656 332.660156 240.101562 333.402344 237.839844 334.085938 C 235.578125 334.773438 233.300781 335.40625 231.007812 335.980469 C 228.710938 336.554688 226.40625 337.070312 224.085938 337.53125 C 221.769531 337.992188 219.441406 338.398438 217.101562 338.746094 C 214.761719 339.09375 212.414062 339.382812 210.0625 339.613281 C 207.710938 339.84375 205.351562 340.019531 202.992188 340.132812 C 200.628906 340.25 198.265625 340.308594 195.902344 340.308594 C 193.539062 340.308594 191.175781 340.25 188.8125 340.132812 C 186.453125 340.019531 184.09375 339.84375 181.742188 339.613281 C 179.386719 339.382812 177.042969 339.09375 174.703125 338.746094 C 172.363281 338.398438 170.035156 337.992188 167.714844 337.53125 C 165.398438 337.070312 163.089844 336.554688 160.796875 335.980469 C 158.503906 335.40625 156.226562 334.773438 153.964844 334.085938 C 151.699219 333.402344 149.457031 332.660156 147.230469 331.863281 C 145.003906 331.066406 142.796875 330.214844 140.613281 329.3125 C 138.429688 328.40625 136.269531 327.449219 134.132812 326.4375 C 131.996094 325.425781 129.882812 324.363281 127.796875 323.25 C 125.710938 322.136719 123.65625 320.96875 121.628906 319.753906 C 119.601562 318.539062 117.601562 317.273438 115.636719 315.960938 C 113.671875 314.648438 111.738281 313.285156 109.839844 311.878906 C 107.941406 310.46875 106.078125 309.015625 104.25 307.515625 C 102.421875 306.015625 100.632812 304.46875 98.878906 302.882812 C 97.128906 301.296875 95.414062 299.664062 93.742188 297.992188 C 92.070312 296.320312 90.441406 294.609375 88.855469 292.859375 C 87.265625 291.105469 85.722656 289.316406 84.222656 287.488281 C 82.722656 285.660156 81.269531 283.796875 79.859375 281.898438 C 78.453125 280 77.089844 278.066406 75.777344 276.101562 C 74.464844 274.132812 73.199219 272.136719 71.984375 270.109375 C 70.765625 268.082031 69.601562 266.023438 68.488281 263.9375 C 67.375 261.855469 66.308594 259.742188 65.300781 257.605469 C 64.289062 255.46875 63.332031 253.308594 62.425781 251.121094 C 61.519531 248.9375 60.671875 246.734375 59.875 244.507812 C 59.078125 242.28125 58.335938 240.035156 57.648438 237.773438 C 56.964844 235.511719 56.332031 233.234375 55.757812 230.9375 C 55.183594 228.644531 54.664062 226.339844 54.203125 224.019531 C 53.742188 221.703125 53.339844 219.371094 52.992188 217.035156 C 52.644531 214.695312 52.355469 212.347656 52.125 209.996094 C 51.890625 207.644531 51.71875 205.285156 51.601562 202.925781 C 51.488281 200.5625 51.429688 198.199219 51.429688 195.835938 C 51.429688 193.46875 51.488281 191.109375 51.601562 188.746094 C 51.71875 186.382812 51.890625 184.027344 52.125 181.675781 C 52.355469 179.320312 52.644531 176.976562 52.992188 174.636719 C 53.339844 172.296875 53.742188 169.96875 54.203125 167.648438 C 54.664062 165.332031 55.183594 163.023438 55.757812 160.730469 C 56.332031 158.4375 56.964844 156.160156 57.648438 153.898438 C 58.335938 151.632812 59.078125 149.390625 59.875 147.164062 C 60.671875 144.9375 61.519531 142.730469 62.425781 140.546875 C 63.332031 138.363281 64.289062 136.203125 65.300781 134.066406 C 66.308594 131.925781 67.375 129.816406 68.488281 127.730469 C 69.601562 125.644531 70.765625 123.589844 71.984375 121.5625 C 73.199219 119.53125 74.464844 117.535156 75.777344 115.570312 C 77.089844 113.605469 78.453125 111.671875 79.859375 109.773438 C 81.269531 107.875 82.722656 106.007812 84.222656 104.183594 C 85.722656 102.355469 87.265625 100.5625 88.855469 98.8125 C 90.441406 97.0625 92.070312 95.347656 93.742188 93.675781 C 95.414062 92.003906 97.128906 90.375 98.878906 88.789062 C 100.632812 87.199219 102.421875 85.65625 104.25 84.15625 C 106.078125 82.65625 107.941406 81.203125 109.839844 79.792969 C 111.738281 78.382812 113.671875 77.023438 115.636719 75.710938 C 117.601562 74.394531 119.601562 73.132812 121.628906 71.914062 C 123.65625 70.699219 125.710938 69.535156 127.796875 68.421875 C 129.882812 67.304688 131.996094 66.242188 134.132812 65.234375 C 136.269531 64.222656 138.429688 63.265625 140.613281 62.359375 C 142.796875 61.453125 145.003906 60.601562 147.230469 59.808594 C 149.457031 59.011719 151.699219 58.269531 153.964844 57.582031 C 156.226562 56.894531 158.503906 56.265625 160.796875 55.691406 C 163.089844 55.117188 165.398438 54.597656 167.714844 54.136719 C 170.035156 53.675781 172.363281 53.273438 174.703125 52.925781 C 177.042969 52.578125 179.386719 52.289062 181.742188 52.058594 C 184.09375 51.824219 186.453125 51.652344 188.8125 51.535156 C 191.175781 51.417969 193.539062 51.363281 195.902344 51.363281 C 198.265625 51.363281 200.628906 51.417969 202.992188 51.535156 C 205.351562 51.652344 207.710938 51.824219 210.0625 52.058594 C 212.414062 52.289062 214.761719 52.578125 217.101562 52.925781 C 219.441406 53.273438 221.769531 53.675781 224.085938 54.136719 C 226.40625 54.597656 228.710938 55.117188 231.007812 55.691406 C 233.300781 56.265625 235.578125 56.894531 237.839844 57.582031 C 240.101562 58.269531 242.347656 59.011719 244.574219 59.808594 C 246.800781 60.601562 249.003906 61.453125 251.191406 62.359375 C 253.375 63.265625 255.535156 64.222656 257.671875 65.234375 C 259.808594 66.242188 261.921875 67.304688 264.007812 68.421875 C 266.089844 69.535156 268.148438 70.699219 270.175781 71.914062 C 272.203125 73.132812 274.203125 74.394531 276.167969 75.710938 C 278.132812 77.023438 280.066406 78.382812 281.964844 79.792969 C 283.863281 81.203125 285.726562 82.65625 287.554688 84.15625 C 289.382812 85.65625 291.171875 87.199219 292.925781 88.789062 C 294.675781 90.375 296.386719 92.003906 298.058594 93.675781 C 299.730469 95.347656 301.363281 97.0625 302.949219 98.8125 C 304.539062 100.5625 306.082031 102.355469 307.582031 104.183594 C 309.082031 106.007812 310.535156 107.875 311.945312 109.773438 C 313.351562 111.671875 314.714844 113.605469 316.027344 115.570312 C 317.339844 117.535156 318.605469 119.53125 319.820312 121.5625 C 321.035156 123.589844 322.203125 125.644531 323.316406 127.730469 C 324.429688 129.816406 325.492188 131.925781 326.503906 134.066406 C 327.515625 136.203125 328.472656 138.363281 329.378906 140.546875 C 330.28125 142.730469 331.132812 144.9375 331.929688 147.164062 C 332.726562 149.390625 333.46875 151.632812 334.15625 153.898438 C 334.839844 156.160156 335.472656 158.4375 336.046875 160.730469 C 336.621094 163.023438 337.136719 165.332031 337.597656 167.648438 C 338.0625 169.96875 338.464844 172.296875 338.8125 174.636719 C 339.160156 176.976562 339.449219 179.320312 339.679688 181.675781 C 339.910156 184.027344 340.085938 186.382812 340.203125 188.746094 C 340.316406 191.109375 340.375 193.46875 340.375 195.835938 Z M 340.375 195.835938 " fill-opacity="1" fill-rule="nonzero"/></g><path fill="#000000" d="M 331.832031 187.292969 C 331.832031 189.65625 331.773438 192.019531 331.660156 194.382812 C 331.542969 196.742188 331.367188 199.101562 331.136719 201.453125 C 330.90625 203.804688 330.617188 206.152344 330.269531 208.492188 C 329.921875 210.828125 329.519531 213.160156 329.058594 215.476562 C 328.59375 217.796875 328.078125 220.101562 327.503906 222.398438 C 326.929688 224.691406 326.296875 226.96875 325.613281 229.230469 C 324.925781 231.492188 324.183594 233.738281 323.386719 235.964844 C 322.589844 238.191406 321.742188 240.394531 320.835938 242.578125 C 319.929688 244.765625 318.972656 246.925781 317.960938 249.0625 C 316.949219 251.199219 315.886719 253.3125 314.773438 255.398438 C 313.660156 257.480469 312.492188 259.539062 311.277344 261.566406 C 310.0625 263.59375 308.796875 265.589844 307.484375 267.558594 C 306.171875 269.523438 304.808594 271.457031 303.402344 273.355469 C 301.992188 275.253906 300.539062 277.117188 299.039062 278.945312 C 297.539062 280.773438 295.996094 282.5625 294.40625 284.316406 C 292.820312 286.066406 291.1875 287.777344 289.515625 289.449219 C 287.84375 291.121094 286.132812 292.753906 284.382812 294.339844 C 282.628906 295.929688 280.839844 297.472656 279.011719 298.972656 C 277.183594 300.472656 275.320312 301.925781 273.421875 303.335938 C 271.523438 304.742188 269.589844 306.105469 267.625 307.417969 C 265.660156 308.730469 263.660156 309.996094 261.632812 311.210938 C 259.605469 312.425781 257.550781 313.59375 255.464844 314.707031 C 253.378906 315.820312 251.265625 316.882812 249.128906 317.894531 C 246.992188 318.90625 244.832031 319.863281 242.648438 320.769531 C 240.460938 321.671875 238.257812 322.523438 236.03125 323.320312 C 233.804688 324.117188 231.558594 324.859375 229.296875 325.542969 C 227.035156 326.230469 224.757812 326.863281 222.464844 327.4375 C 220.167969 328.011719 217.863281 328.527344 215.542969 328.988281 C 213.226562 329.449219 210.898438 329.855469 208.558594 330.203125 C 206.21875 330.550781 203.875 330.839844 201.519531 331.070312 C 199.167969 331.300781 196.808594 331.476562 194.449219 331.59375 C 192.085938 331.707031 189.722656 331.765625 187.359375 331.765625 C 184.996094 331.765625 182.632812 331.707031 180.269531 331.59375 C 177.910156 331.476562 175.550781 331.300781 173.199219 331.070312 C 170.84375 330.839844 168.5 330.550781 166.160156 330.203125 C 163.820312 329.855469 161.492188 329.449219 159.175781 328.988281 C 156.855469 328.527344 154.546875 328.011719 152.253906 327.4375 C 149.960938 326.863281 147.683594 326.230469 145.421875 325.546875 C 143.15625 324.859375 140.914062 324.117188 138.6875 323.320312 C 136.460938 322.523438 134.257812 321.671875 132.070312 320.769531 C 129.886719 319.863281 127.726562 318.90625 125.589844 317.894531 C 123.453125 316.882812 121.339844 315.820312 119.253906 314.707031 C 117.167969 313.59375 115.113281 312.425781 113.085938 311.210938 C 111.058594 309.996094 109.058594 308.730469 107.09375 307.417969 C 105.128906 306.105469 103.195312 304.742188 101.296875 303.335938 C 99.398438 301.925781 97.535156 300.472656 95.707031 298.972656 C 93.878906 297.472656 92.089844 295.929688 90.335938 294.339844 C 88.585938 292.753906 86.871094 291.121094 85.199219 289.449219 C 83.527344 287.777344 81.898438 286.066406 80.3125 284.316406 C 78.722656 282.5625 77.179688 280.773438 75.679688 278.945312 C 74.179688 277.117188 72.726562 275.253906 71.316406 273.355469 C 69.910156 271.457031 68.546875 269.523438 67.234375 267.558594 C 65.921875 265.589844 64.65625 263.59375 63.441406 261.566406 C 62.222656 259.539062 61.058594 257.480469 59.945312 255.398438 C 58.832031 253.3125 57.769531 251.199219 56.757812 249.0625 C 55.746094 246.925781 54.789062 244.765625 53.882812 242.578125 C 52.976562 240.394531 52.128906 238.191406 51.332031 235.964844 C 50.535156 233.738281 49.792969 231.492188 49.105469 229.230469 C 48.421875 226.96875 47.789062 224.691406 47.214844 222.398438 C 46.640625 220.101562 46.121094 217.796875 45.660156 215.476562 C 45.199219 213.160156 44.796875 210.828125 44.449219 208.492188 C 44.101562 206.152344 43.8125 203.804688 43.582031 201.453125 C 43.351562 199.101562 43.175781 196.742188 43.058594 194.382812 C 42.945312 192.019531 42.886719 189.65625 42.886719 187.292969 C 42.886719 184.929688 42.945312 182.566406 43.058594 180.203125 C 43.175781 177.839844 43.351562 175.484375 43.582031 173.132812 C 43.8125 170.777344 44.101562 168.433594 44.449219 166.09375 C 44.796875 163.753906 45.199219 161.425781 45.660156 159.105469 C 46.121094 156.789062 46.640625 154.480469 47.214844 152.1875 C 47.789062 149.894531 48.421875 147.617188 49.105469 145.355469 C 49.792969 143.089844 50.535156 140.847656 51.332031 138.621094 C 52.128906 136.394531 52.976562 134.1875 53.882812 132.003906 C 54.789062 129.820312 55.746094 127.660156 56.757812 125.523438 C 57.769531 123.382812 58.832031 121.273438 59.945312 119.1875 C 61.058594 117.101562 62.222656 115.046875 63.441406 113.019531 C 64.65625 110.988281 65.921875 108.992188 67.234375 107.027344 C 68.546875 105.0625 69.910156 103.128906 71.316406 101.230469 C 72.726562 99.332031 74.179688 97.46875 75.679688 95.640625 C 77.179688 93.8125 78.722656 92.023438 80.3125 90.269531 C 81.898438 88.519531 83.527344 86.804688 85.199219 85.132812 C 86.871094 83.460938 88.585938 81.832031 90.335938 80.246094 C 92.089844 78.65625 93.878906 77.113281 95.707031 75.613281 C 97.535156 74.113281 99.398438 72.660156 101.296875 71.25 C 103.195312 69.839844 105.128906 68.480469 107.09375 67.167969 C 109.058594 65.851562 111.058594 64.589844 113.085938 63.375 C 115.113281 62.15625 117.167969 60.992188 119.253906 59.878906 C 121.339844 58.761719 123.453125 57.699219 125.589844 56.691406 C 127.726562 55.679688 129.886719 54.722656 132.070312 53.816406 C 134.257812 52.910156 136.460938 52.0625 138.6875 51.265625 C 140.914062 50.46875 143.15625 49.726562 145.421875 49.039062 C 147.683594 48.351562 149.960938 47.722656 152.253906 47.148438 C 154.546875 46.574219 156.855469 46.054688 159.175781 45.59375 C 161.492188 45.132812 163.820312 44.730469 166.160156 44.382812 C 168.5 44.035156 170.84375 43.746094 173.199219 43.515625 C 175.550781 43.28125 177.910156 43.109375 180.269531 42.992188 C 182.632812 42.875 184.996094 42.820312 187.359375 42.820312 C 189.722656 42.820312 192.085938 42.875 194.449219 42.992188 C 196.808594 43.109375 199.167969 43.28125 201.519531 43.515625 C 203.875 43.746094 206.21875 44.035156 208.558594 44.382812 C 210.898438 44.730469 213.226562 45.132812 215.542969 45.59375 C 217.863281 46.054688 220.167969 46.574219 222.464844 47.148438 C 224.757812 47.722656 227.035156 48.351562 229.296875 49.039062 C 231.558594 49.726562 233.804688 50.46875 236.03125 51.265625 C 238.257812 52.0625 240.460938 52.910156 242.648438 53.816406 C 244.832031 54.722656 246.992188 55.679688 249.128906 56.691406 C 251.265625 57.699219 253.378906 58.761719 255.464844 59.878906 C 257.550781 60.992188 259.605469 62.15625 261.632812 63.375 C 263.660156 64.589844 265.660156 65.851562 267.625 67.167969 C 269.589844 68.480469 271.523438 69.839844 273.421875 71.25 C 275.320312 72.660156 277.183594 74.113281 279.011719 75.613281 C 280.839844 77.113281 282.628906 78.65625 284.382812 80.246094 C 286.132812 81.832031 287.84375 83.460938 289.515625 85.132812 C 291.1875 86.804688 292.820312 88.519531 294.40625 90.269531 C 295.996094 92.023438 297.539062 93.8125 299.039062 95.640625 C 300.539062 97.46875 301.992188 99.332031 303.402344 101.230469 C 304.808594 103.128906 306.171875 105.0625 307.484375 107.027344 C 308.796875 108.992188 310.0625 110.988281 311.277344 113.019531 C 312.492188 115.046875 313.660156 117.101562 314.773438 119.1875 C 315.886719 121.273438 316.949219 123.382812 317.960938 125.523438 C 318.972656 127.660156 319.929688 129.820312 320.835938 132.003906 C 321.742188 134.1875 322.589844 136.394531 323.386719 138.621094 C 324.183594 140.847656 324.925781 143.089844 325.613281 145.355469 C 326.296875 147.617188 326.929688 149.894531 327.503906 152.1875 C 328.078125 154.480469 328.59375 156.789062 329.058594 159.105469 C 329.519531 161.425781 329.921875 163.753906 330.269531 166.09375 C 330.617188 168.433594 330.90625 170.777344 331.136719 173.132812 C 331.367188 175.484375 331.542969 177.839844 331.660156 180.203125 C 331.773438 182.566406 331.832031 184.929688 331.832031 187.292969 Z M 331.832031 187.292969 " fill-opacity="1" fill-rule="nonzero"/><path fill="#ffffff" d="M 259.910156 173.699219 C 264.710938 176.546875 267.65625 181.710938 267.65625 187.292969 C 267.65625 192.871094 264.710938 198.039062 259.910156 200.882812 C 231.023438 217.996094 181.640625 247.257812 152.332031 264.625 C 147.449219 267.515625 141.390625 267.570312 136.457031 264.757812 C 131.527344 261.949219 128.480469 256.707031 128.480469 251.03125 C 128.480469 216.550781 128.480469 158.03125 128.480469 123.550781 C 128.480469 117.875 131.527344 112.636719 136.457031 109.824219 C 141.390625 107.015625 147.449219 107.066406 152.332031 109.960938 C 181.640625 127.324219 231.023438 156.585938 259.910156 173.699219 Z M 259.910156 173.699219 " fill-opacity="1" fill-rule="evenodd"/><path fill="#ee2153" d="M 364.4375 44.285156 L 284.066406 114.851562 C 283.742188 115.136719 283.375 115.363281 282.976562 115.523438 C 282.574219 115.6875 282.15625 115.78125 281.722656 115.804688 C 281.289062 115.828125 280.867188 115.78125 280.449219 115.660156 C 280.03125 115.542969 279.644531 115.359375 279.289062 115.109375 C 278.933594 114.863281 278.628906 114.5625 278.375 114.214844 C 278.117188 113.863281 277.925781 113.480469 277.796875 113.066406 C 277.671875 112.652344 277.613281 112.226562 277.628906 111.792969 C 277.640625 111.363281 277.726562 110.941406 277.878906 110.535156 L 281.898438 99.976562 L 355.269531 35.589844 C 356.003906 34.914062 356.40625 34.078125 356.476562 33.082031 L 364 38.121094 C 364.25 38.285156 364.476562 38.472656 364.683594 38.691406 C 364.886719 38.90625 365.066406 39.144531 365.21875 39.402344 C 365.371094 39.660156 365.488281 39.933594 365.578125 40.21875 C 365.667969 40.503906 365.722656 40.796875 365.742188 41.09375 C 365.765625 41.394531 365.75 41.691406 365.703125 41.984375 C 365.65625 42.28125 365.574219 42.566406 365.460938 42.84375 C 365.347656 43.121094 365.207031 43.382812 365.03125 43.625 C 364.859375 43.867188 364.660156 44.089844 364.4375 44.285156 Z M 364.4375 44.285156 " fill-opacity="1" fill-rule="nonzero"/><g clip-path="url(#4e9a99e3da)"><path fill="#ee2153" d="M 374.523438 132.300781 L 374.050781 172.273438 C 374.046875 172.570312 374.007812 172.863281 373.933594 173.152344 C 373.863281 173.441406 373.757812 173.71875 373.621094 173.984375 C 373.488281 174.25 373.324219 174.496094 373.132812 174.722656 C 372.941406 174.953125 372.726562 175.15625 372.488281 175.332031 C 372.25 175.511719 371.992188 175.660156 371.722656 175.78125 C 371.449219 175.902344 371.167969 175.988281 370.875 176.046875 C 370.582031 176.101562 370.285156 176.121094 369.988281 176.109375 C 369.691406 176.101562 369.398438 176.054688 369.113281 175.976562 L 288.972656 153.574219 C 288.300781 153.386719 287.71875 153.039062 287.234375 152.535156 C 286.746094 152.03125 286.421875 151.4375 286.253906 150.757812 C 286.085938 150.078125 286.105469 149.402344 286.300781 148.730469 C 286.5 148.058594 286.855469 147.484375 287.363281 147.003906 L 359.914062 167.324219 C 360.199219 167.402344 360.492188 167.449219 360.792969 167.460938 C 361.089844 167.472656 361.382812 167.453125 361.675781 167.394531 C 361.96875 167.339844 362.253906 167.253906 362.527344 167.132812 C 362.796875 167.011719 363.054688 166.863281 363.292969 166.683594 C 363.53125 166.507812 363.746094 166.300781 363.9375 166.074219 C 364.128906 165.847656 364.292969 165.597656 364.429688 165.332031 C 364.5625 165.066406 364.667969 164.789062 364.738281 164.5 C 364.808594 164.210938 364.847656 163.917969 364.851562 163.621094 L 365.234375 129.476562 L 369.792969 128.480469 C 370.078125 128.417969 370.363281 128.386719 370.65625 128.390625 C 370.949219 128.390625 371.238281 128.425781 371.519531 128.496094 C 371.804688 128.5625 372.078125 128.660156 372.339844 128.789062 C 372.601562 128.917969 372.847656 129.074219 373.074219 129.253906 C 373.300781 129.4375 373.503906 129.644531 373.683594 129.875 C 373.867188 130.105469 374.019531 130.351562 374.144531 130.613281 C 374.269531 130.878906 374.363281 131.152344 374.429688 131.4375 C 374.492188 131.722656 374.523438 132.011719 374.523438 132.300781 Z M 374.523438 132.300781 " fill-opacity="1" fill-rule="nonzero"/></g><path fill="#ee2153" d="M 257.371094 25.960938 L 249.210938 108.773438 C 249.167969 109.207031 249.058594 109.621094 248.878906 110.015625 C 248.695312 110.410156 248.457031 110.765625 248.15625 111.078125 C 247.859375 111.394531 247.515625 111.652344 247.128906 111.851562 C 246.742188 112.050781 246.335938 112.183594 245.90625 112.246094 C 245.476562 112.308594 245.046875 112.300781 244.621094 112.21875 C 244.195312 112.140625 243.792969 111.992188 243.414062 111.777344 C 243.039062 111.558594 242.707031 111.289062 242.417969 110.960938 C 242.132812 110.636719 241.90625 110.269531 241.742188 109.867188 L 238.742188 102.5625 C 239.523438 101.910156 239.945312 101.078125 240.011719 100.066406 L 247.679688 22.578125 L 252.902344 21.734375 C 253.195312 21.6875 253.492188 21.671875 253.785156 21.695312 C 254.082031 21.714844 254.375 21.769531 254.65625 21.855469 C 254.941406 21.945312 255.210938 22.0625 255.46875 22.214844 C 255.726562 22.363281 255.960938 22.539062 256.179688 22.746094 C 256.394531 22.949219 256.582031 23.175781 256.746094 23.421875 C 256.910156 23.671875 257.046875 23.933594 257.148438 24.214844 C 257.25 24.492188 257.324219 24.78125 257.359375 25.074219 C 257.398438 25.371094 257.398438 25.664062 257.371094 25.960938 Z M 257.371094 25.960938 " fill-opacity="1" fill-rule="nonzero"/><path fill="#ffffff" d="M 356.476562 33.082031 C 356.382812 34.078125 355.957031 34.90625 355.203125 35.566406 L 281.832031 99.957031 L 315.496094 11.402344 C 315.601562 11.128906 315.734375 10.871094 315.898438 10.628906 C 316.058594 10.386719 316.246094 10.164062 316.460938 9.964844 C 316.671875 9.765625 316.902344 9.589844 317.15625 9.441406 C 317.40625 9.292969 317.671875 9.175781 317.949219 9.089844 C 318.230469 9 318.511719 8.941406 318.804688 8.917969 C 319.09375 8.894531 319.386719 8.902344 319.675781 8.945312 C 319.964844 8.984375 320.246094 9.058594 320.515625 9.164062 C 320.789062 9.265625 321.046875 9.398438 321.289062 9.5625 Z M 356.476562 33.082031 " fill-opacity="1" fill-rule="nonzero"/><path fill="#6ac9d0" d="M 356.476562 33.082031 L 321.355469 9.585938 C 321.113281 9.421875 320.855469 9.289062 320.582031 9.183594 C 320.308594 9.078125 320.027344 9.007812 319.738281 8.964844 C 319.449219 8.925781 319.160156 8.917969 318.871094 8.941406 C 318.578125 8.964844 318.292969 9.019531 318.015625 9.109375 C 317.738281 9.199219 317.472656 9.316406 317.222656 9.464844 C 316.96875 9.613281 316.738281 9.785156 316.523438 9.988281 C 316.3125 10.1875 316.125 10.410156 315.964844 10.652344 C 315.800781 10.894531 315.667969 11.152344 315.5625 11.425781 L 281.898438 99.976562 L 274.871094 106.144531 C 274.542969 106.429688 274.179688 106.652344 273.777344 106.8125 C 273.378906 106.976562 272.960938 107.066406 272.527344 107.089844 C 272.097656 107.113281 271.671875 107.066406 271.257812 106.949219 C 270.839844 106.828125 270.457031 106.648438 270.101562 106.398438 C 269.746094 106.152344 269.441406 105.855469 269.183594 105.507812 C 268.929688 105.15625 268.738281 104.777344 268.609375 104.363281 C 268.480469 103.949219 268.421875 103.527344 268.433594 103.09375 C 268.449219 102.664062 268.53125 102.246094 268.683594 101.839844 L 306.363281 2.714844 C 306.46875 2.441406 306.601562 2.183594 306.761719 1.941406 C 306.925781 1.699219 307.113281 1.476562 307.324219 1.273438 C 307.535156 1.074219 307.769531 0.898438 308.019531 0.75 C 308.273438 0.601562 308.535156 0.484375 308.816406 0.394531 C 309.09375 0.304688 309.378906 0.25 309.671875 0.226562 C 309.960938 0.203125 310.253906 0.210938 310.542969 0.253906 C 310.832031 0.292969 311.113281 0.367188 311.382812 0.472656 C 311.65625 0.578125 311.914062 0.710938 312.15625 0.875 L 354.867188 29.433594 C 355.457031 29.839844 355.898438 30.371094 356.1875 31.027344 C 356.476562 31.683594 356.574219 32.371094 356.476562 33.082031 Z M 356.476562 33.082031 " fill-opacity="1" fill-rule="nonzero"/><path fill="#ffffff" d="M 365.234375 129.476562 L 364.839844 163.585938 C 364.835938 163.886719 364.800781 164.179688 364.726562 164.46875 C 364.65625 164.757812 364.554688 165.035156 364.417969 165.300781 C 364.28125 165.566406 364.117188 165.8125 363.925781 166.042969 C 363.734375 166.269531 363.519531 166.472656 363.28125 166.652344 C 363.042969 166.832031 362.789062 166.980469 362.515625 167.101562 C 362.242188 167.21875 361.960938 167.308594 361.667969 167.363281 C 361.375 167.417969 361.078125 167.441406 360.78125 167.425781 C 360.480469 167.414062 360.191406 167.371094 359.902344 167.289062 L 287.363281 147.003906 C 287.882812 146.503906 288.496094 146.183594 289.203125 146.050781 Z M 365.234375 129.476562 " fill-opacity="1" fill-rule="nonzero"/><path fill="#6ac9d0" d="M 365.324219 123.605469 L 365.234375 129.476562 L 289.191406 146.015625 C 288.484375 146.152344 287.871094 146.46875 287.351562 146.96875 L 279.820312 144.8125 C 279.402344 144.695312 279.011719 144.511719 278.65625 144.265625 C 278.296875 144.019531 277.988281 143.71875 277.734375 143.371094 C 277.476562 143.019531 277.28125 142.636719 277.152344 142.222656 C 277.023438 141.808594 276.964844 141.382812 276.980469 140.949219 C 276.992188 140.515625 277.078125 140.09375 277.230469 139.6875 C 277.382812 139.28125 277.601562 138.910156 277.878906 138.578125 C 278.15625 138.242188 278.480469 137.964844 278.855469 137.738281 C 279.226562 137.515625 279.625 137.355469 280.050781 137.265625 L 360.648438 119.738281 C 360.933594 119.679688 361.21875 119.652344 361.511719 119.65625 C 361.804688 119.664062 362.089844 119.703125 362.371094 119.773438 C 362.65625 119.84375 362.925781 119.941406 363.1875 120.074219 C 363.445312 120.203125 363.6875 120.363281 363.914062 120.550781 C 364.136719 120.734375 364.339844 120.941406 364.515625 121.171875 C 364.695312 121.40625 364.84375 121.652344 364.964844 121.917969 C 365.089844 122.179688 365.179688 122.457031 365.238281 122.742188 C 365.300781 123.027344 365.328125 123.3125 365.324219 123.605469 Z M 365.324219 123.605469 " fill-opacity="1" fill-rule="nonzero"/><path fill="#ffffff" d="M 247.644531 22.585938 L 239.980469 100.074219 C 239.914062 101.089844 239.492188 101.921875 238.710938 102.574219 L 210.457031 33.519531 C 210.347656 33.25 210.269531 32.96875 210.222656 32.679688 C 210.175781 32.390625 210.164062 32.101562 210.183594 31.808594 C 210.199219 31.519531 210.25 31.234375 210.332031 30.953125 C 210.417969 30.671875 210.527344 30.40625 210.671875 30.148438 C 210.8125 29.894531 210.980469 29.65625 211.175781 29.441406 C 211.371094 29.222656 211.589844 29.03125 211.828125 28.859375 C 212.066406 28.691406 212.320312 28.550781 212.589844 28.4375 C 212.859375 28.328125 213.136719 28.246094 213.425781 28.195312 Z M 247.644531 22.585938 " fill-opacity="1" fill-rule="nonzero"/><g clip-path="url(#194865a22b)"><path fill="#6ac9d0" d="M 248.160156 17.253906 L 247.644531 22.585938 L 213.425781 28.195312 C 213.136719 28.246094 212.859375 28.328125 212.589844 28.4375 C 212.320312 28.550781 212.066406 28.691406 211.828125 28.859375 C 211.589844 29.03125 211.371094 29.222656 211.175781 29.441406 C 210.980469 29.65625 210.8125 29.894531 210.671875 30.148438 C 210.527344 30.40625 210.417969 30.671875 210.332031 30.953125 C 210.25 31.234375 210.199219 31.519531 210.183594 31.808594 C 210.164062 32.101562 210.175781 32.390625 210.222656 32.679688 C 210.269531 32.96875 210.347656 33.25 210.457031 33.519531 L 238.742188 102.53125 C 238.511719 102.738281 238.257812 102.917969 237.984375 103.066406 C 237.710938 103.21875 237.421875 103.332031 237.121094 103.410156 C 236.820312 103.492188 236.515625 103.53125 236.203125 103.539062 C 235.890625 103.542969 235.582031 103.511719 235.277344 103.445312 C 234.972656 103.375 234.683594 103.269531 234.402344 103.132812 C 234.125 102.992188 233.867188 102.820312 233.628906 102.621094 C 233.390625 102.417969 233.179688 102.191406 232.996094 101.9375 C 232.8125 101.6875 232.660156 101.417969 232.542969 101.128906 L 201.257812 24.8125 C 201.148438 24.539062 201.070312 24.257812 201.027344 23.96875 C 200.980469 23.679688 200.964844 23.390625 200.984375 23.097656 C 201.003906 22.804688 201.058594 22.519531 201.140625 22.238281 C 201.226562 21.957031 201.339844 21.6875 201.484375 21.433594 C 201.628906 21.179688 201.796875 20.945312 201.996094 20.726562 C 202.191406 20.511719 202.410156 20.316406 202.652344 20.152344 C 202.890625 19.984375 203.144531 19.84375 203.417969 19.734375 C 203.6875 19.625 203.96875 19.546875 204.257812 19.5 L 243.679688 13.046875 C 243.972656 12.996094 244.269531 12.984375 244.566406 13.003906 C 244.863281 13.023438 245.152344 13.074219 245.4375 13.160156 C 245.722656 13.246094 245.992188 13.363281 246.25 13.511719 C 246.507812 13.664062 246.742188 13.839844 246.960938 14.042969 C 247.175781 14.246094 247.367188 14.46875 247.53125 14.71875 C 247.695312 14.964844 247.832031 15.226562 247.933594 15.507812 C 248.039062 15.785156 248.109375 16.070312 248.148438 16.367188 C 248.1875 16.660156 248.191406 16.957031 248.160156 17.253906 Z M 248.160156 17.253906 " fill-opacity="1" fill-rule="nonzero"/></g></svg>